PathFileType	4	(X/Y/Z)	56_1_31_p1_0-230_filt_butterworth.trc
DataRate	CameraRate	NumFrames	NumMarkers	Units	OrigDataRate	OrigDataStartFrame	OrigNumFrames
40.0	40.0	6	27	m	40.0	0	230
Frame#	Time	RHip			RKnee			RAnkle			RBigToe			RSmallToe			RHeel			LHip			LKnee			LAnkle			LBigToe			LSmallToe			LHeel			Neck			Head			Nose			RShoulder			RElbow			RWrist			RThumb			RIndex			RPinky			LShoulder			LElbow			LWrist			LThumb			LIndex			LPinky			
		X1	Y1	Z1	X2	Y2	Z2	X3	Y3	Z3	X4	Y4	Z4	X5	Y5	Z5	X6	Y6	Z6	X7	Y7	Z7	X8	Y8	Z8	X9	Y9	Z9	X10	Y10	Z10	X11	Y11	Z11	X12	Y12	Z12	X13	Y13	Z13	X14	Y14	Z14	X15	Y15	Z15	X16	Y16	Z16	X17	Y17	Z17	X18	Y18	Z18	X19	Y19	Z19	X20	Y20	Z20	X21	Y21	Z21	X22	Y22	Z22	X23	Y23	Z23	X24	Y24	Z24	X25	Y25	Z25	X26	Y26	Z26	X27	Y27	Z27	
0	0.0	0.49087628192860644	0.40881435979806013	0.9872595126720597	0.5130922433313372	0.004272997138075829	0.9823732080446481	0.49082448304366444	-0.3732413050172084	0.9605545596037539	0.41792370390150435	-0.39794552894700597	0.791165811711543	0.4924519868858764	-0.40326839808178555	0.7940255678348082	0.48449661056248383	-0.4312629709066367	1.0203335412455325	0.2928358232307261	0.3798345362576589	1.0639531855589086	0.3075300415657115	0.02073717614531906	1.045952331995065	0.31742827352629777	-0.36024394780494984	1.0315478160969345	0.24243898520979043	-0.370173327090376	0.7991643355605783	0.21800618385811768	-0.41005025266505923	0.895405534220798	0.3440581009018233	-0.4230795420400124	1.054848979067581	0.3537981612911834	0.9846711486709305	1.03931380541739	0.33060619110511785	1.2499187340625735	1.0000602379786376	0.3035045389851498	1.1132692800622477	0.928005310172312	0.5230209195312018	0.9100537362819836	0.9775137695015327	0.5719843106814255	0.6562862086446832	0.8897583695837235	0.5789253642818013	0.42910274381264135	0.7459184027913937	0.5061864804909264	0.3465849443498843	0.6765345133834693	0.5266737547957844	0.3272861755493525	0.6356112454007015	0.6260674406933461	0.27666959171051386	0.7573890972231878	0.19104493814647283	0.8978351810622077	1.0736989287294356	0.13180668804706386	0.6165521810551602	1.0903479131766787	0.09189107529351463	0.3972385600102181	0.9752978068077462	0.10946317864887636	0.3390051846040697	0.8752113220552842	0.09020206432222358	0.3123249064532736	0.8620682406533514	0.07400680855623236	0.2796911580425397	0.9691236014146682	
1	0.025	0.4895470747346865	0.4145415053919315	0.984338500041049	0.5116362109353454	0.010967441847361703	0.982112793014934	0.49180082272537323	-0.3740154233434658	0.9600824972971816	0.41850755949935264	-0.3992582163585427	0.7925415755534801	0.49117846886722505	-0.4004420844650326	0.7903336481943034	0.4857367276708341	-0.432942967730112	1.0217740552880716	0.29309603669673673	0.38174884189955033	1.0657361054229364	0.3075777579213169	0.02220340311343183	1.0454941481854672	0.31739357885329517	-0.36091281525031954	1.0316978826385477	0.2421189982853741	-0.37285604480528084	0.8075405666264577	0.2180852596754731	-0.4099704451684255	0.8955616245972442	0.3443630292122101	-0.42495818882767317	1.0553835768833897	0.353677456907936	0.9849535552967668	1.0323443664143257	0.3299503521281453	1.2500754953982565	0.9991123515747735	0.30585948318128325	1.1120686877873787	0.931230480521015	0.5202182354787107	0.9121721707247394	0.9752028654429921	0.5715565945625086	0.6592003512644296	0.8817063778415613	0.5859513272339851	0.43083148937232735	0.7421540321280471	0.5085237782906057	0.35222077449632994	0.6662451212973509	0.5454171417121806	0.3224980636516155	0.6511280668413065	0.6198622623892344	0.28772434104601313	0.7453429713668338	0.1910869243784492	0.8964746643340693	1.0764836990987958	0.130322468599938	0.6184039465627186	1.0842397704255944	0.08188854079063808	0.39670522232974115	0.9784455728085851	0.11209189577082014	0.3410699227678533	0.8814529710805383	0.07783596421042428	0.3069304020262867	0.8799904664887699	0.06227793828326411	0.2813627007290312	0.9615568438402597	
2	0.05	0.4883901733831361	0.41983533639624865	0.9817870184628529	0.5103763812379841	0.016652912379080342	0.9818021127716698	0.49271301593360084	-0.37466827956122617	0.96004168074777	0.4189309127241419	-0.39984258020857577	0.7931635458236014	0.4910739373577159	-0.40030085749557803	0.7900594406698899	0.48685475366099373	-0.4342942510879662	1.0231101551872397	0.292958706890001	0.38411372669532096	1.066756227485636	0.3076213733254261	0.023449751959603415	1.0451048465771762	0.3173725276448813	-0.361370517767606	1.031883113690287	0.24197097750801141	-0.3743286086956364	0.8122288900779439	0.2180951033403939	-0.4100434818175271	0.8956519773319794	0.34455241516039126	-0.4262840268605017	1.0558384913602954	0.35363553290064564	0.9849618236194743	1.028038436047615	0.3297904670428503	1.2501220345792388	0.9988663632683142	0.3064579708060555	1.1112903178665614	0.9319975070132709	0.5180401737703287	0.9133198764866791	0.9730896873888399	0.5733038578979437	0.6609219232997269	0.8770335417270156	0.591656238090771	0.43260465717241453	0.7375113465239947	0.5178472036964956	0.35330247873175513	0.6611743127435616	0.5635981487992854	0.31817684895332327	0.6630864038639548	0.618118547603091	0.29702292322128043	0.7347075060830381	0.19102417384745748	0.8963410772219502	1.0767715568809617	0.12679180119829975	0.6208927670036468	1.0781420415761116	0.0727092742235706	0.3973482709107164	0.980075814012574	0.10978543801058707	0.33824894349409934	0.8913191781040651	0.06429983723699925	0.30473676434608676	0.8917116793211786	0.04862648234103342	0.28157918036235724	0.9616056861013271	
3	0.075	0.48739490139881575	0.42468568061531065	0.9795865288500367	0.5092992449249134	0.021406389389928393	0.9814488850431767	0.4935626333936781	-0.3752001597056398	0.9603727454973862	0.41922228044626003	-0.39989677764857884	0.793211606197227	0.49179756525121116	-0.4019970036722666	0.792127576575138	0.4878546019261587	-0.43534300971858586	1.0243433179727826	0.29247446968330276	0.3868434629258103	1.067097992986209	0.3076608864740102	0.024494898020634703	1.0447790474156289	0.31736363692667163	-0.3616380944149719	1.03209817591324	0.24201392905452024	-0.3748522109819421	0.8140031007392475	0.21805491260632204	-0.4102227323718498	0.8956863982847998	0.34464208872543606	-0.4271140031800827	1.0562253689490793	0.3536537127226945	0.9847689389425073	1.0258673552148836	0.32994928584686667	1.2500963116855528	0.99907468823664	0.30571314035827213	1.1108628583664775	0.9308890253997466	0.5164201312279249	0.9137071840688755	0.9712166804030691	0.576660690086076	0.6618271175927952	0.8749515194334674	0.5963241577781571	0.4344873536518872	0.732328982727002	0.5321319770352453	0.3510997323291153	0.6602183508101047	0.5808270235123435	0.31468971887867725	0.6715929215110135	0.6202341935551496	0.30457913411975257	0.7258416582448497	0.19088562306395385	0.8971427183596379	1.0751581170062963	0.12176011835372622	0.6238600261771002	1.0721595849600858	0.06406135137391905	0.39900967618053773	0.9804081151506456	0.10323808327027183	0.33233847767007546	0.9030169321631842	0.04993442149783984	0.3049815753040495	0.8986607134184665	0.03364464758721228	0.2809590671526457	0.9670389493639286	
4	0.1	0.4865505823065858	0.4290823658534173	0.9777184921151658	0.5083912926817933	0.025304853536603056	0.9810608275577763	0.494351245830936	-0.3756113498118556	0.9610163270878971	0.4194101795360951	-0.3996189658300264	0.7928656403496763	0.49300852544157314	-0.4046828094939437	0.7954626872236181	0.48874018585952483	-0.43611543236035816	1.0254750206744456	0.29169396094942596	0.389852322871858	1.0668458431638579	0.30769629606304044	0.025357516633326582	1.0445113709462623	0.31736542372428167	-0.36173658425058075	1.0323377359684933	0.2422668591017184	-0.3746880438846975	0.8136369934345796	0.21798388522669945	-0.4104615665908784	0.8956746933155012	0.34464787988641393	-0.42750506482800177	1.0565558561005217	0.353713319827465	0.9844478865693188	1.0253024648137574	0.3302495585378282	1.2500362867972312	0.9994897416571318	0.30403813033673877	1.1107149973538086	0.9284876714311079	0.5152915046733684	0.9135444239724025	0.9696262895496734	0.5810616805252509	0.662292126985855	0.8746719691542979	0.6002391472221418	0.43654468524972895	0.7269455774848341	0.5493533186335041	0.3468822105613655	0.6622734985849836	0.5967140133065999	0.31240386085187866	0.6767542848248493	0.625607097465643	0.3104067696248666	0.719104384725317	0.19070020853839445	0.898587886380919	1.0722389944051622	0.11577285257779467	0.6271471078822328	1.0663972589093713	0.05565284802329029	0.40153140856659836	0.9796620609537318	0.09314410945196908	0.3251347561830498	0.9147532222952166	0.03508045508883739	0.30690241679155067	0.9022664030485228	0.01792464087947264	0.28012083131002513	0.975625454794123	
5	0.125	0.48584653963130686	0.433015219914868	0.9761643691708055	0.5076390151942838	0.028425285475801143	0.9806456580437901	0.49508042397070523	-0.3759021359150239	0.9619130610611701	0.41952312686403587	-0.39920730190439524	0.7923055319562705	0.4943659908226655	-0.4075105614594574	0.7989894039289019	0.489515418854288	-0.43663770775167	1.0265067403219745	0.2906678165611544	0.39305457881430367	1.0660842192577848	0.30772760078848804	0.02605628313447994	1.0442964374145138	0.31737640506332687	-0.3616870263325954	1.032596460517135	0.24274877382642437	-0.37409729962440524	0.8119043629881517	0.21790121895496864	-0.41071335423410243	0.8956266682838809	0.34458561862239423	-0.42751415884584343	1.0568415992654046	0.3537956776683401	0.9840716518033619	1.0258151057418639	0.3305140351133694	1.2499799199943067	0.9998639387071708	0.30184607924026174	1.1107754228952378	0.925376080858023	0.5145876909285294	0.9130419266983326	0.9683609598926474	0.585941418613815	0.6626931443211254	0.8754065490828891	0.6036852673487249	0.43884175840492257	0.721699767545257	0.5674864488179225	0.3419195887014599	0.6662360191562023	0.6108693656373004	0.3116864622971272	0.6786771588478303	0.6336351565548062	0.3145196256200574	0.7148546423974895	0.19049686678123595	0.9003848799195807	1.0686098040079237	0.10937543638208254	0.6305953959181991	1.060959921755825	0.04719183995329129	0.4047554384962904	0.9780572361527661	0.08019779445777367	0.31843400992028825	0.924735037537483	0.020078676105883313	0.30973687069996436	0.9039575824792376	0.0020586690754864946	0.27968294304462166	0.9851340235579691	
